# xmcd
#
# Track frame offsets: 
#        150
#        18250
#        45560
#
# Disc length: 654 seconds
#
# Revision: 1
# Processed by: cddbd v1.5.2PL0 Copyright (c) Steve Scherf et al.
# Submitted via: ExactAudioCopy v0.95b3
#
DISCID=18028c03
DTITLE=Clay Aiken - Bridge Over Troubled Waters [CDS)
DYEAR=2003
DGENRE=Pop
TTITLE0=Bridge Over Troubled Waters
TTITLE1=This Is The Night
TTITLE2=DATA
EXTD=YEAR: 2003
EXTT0=
EXTT1=
EXTT2=
PLAYORDER=
